<svg version="1.1" id="Layer_1" xmlns="http://www.w3.org/2000/svg" xmlns:xlink="http://www.w3.org/1999/xlink" x="0px" y="0px"
	 width="100%" viewBox="0 0 2979 271" enable-background="new 0 0 2979 271" xml:space="preserve">
<path fill="#FFFFFF" opacity="1.000000" stroke="none" 
	d="
M2593.000000,272.000000 
	C1729.000000,272.000000 865.000000,272.000000 1.000000,272.000000 
	C1.000000,259.245270 1.000000,246.580582 1.379105,233.460129 
	C2.514820,234.112885 3.428242,235.146164 4.002279,236.342300 
	C7.407480,243.437790 12.648230,248.738068 19.190508,253.063812 
	C37.084686,264.895416 57.388496,268.624359 78.110970,269.793549 
	C94.683853,270.728607 111.311913,270.257996 127.858788,267.178070 
	C142.780975,264.400543 156.789902,259.733154 169.608292,251.729706 
	C183.779633,242.881485 193.907578,230.585907 199.643265,214.804245 
	C203.905670,203.076294 204.019424,190.736359 202.649872,178.771805 
	C201.614487,169.726624 198.831451,160.257980 194.385513,152.349960 
	C183.428894,132.861343 165.382614,121.140533 145.093643,113.113159 
	C129.171951,106.813721 112.785660,101.691437 96.629288,95.979652 
	C93.617867,94.915031 90.676414,93.624588 87.775803,92.280540 
	C82.617767,89.890450 78.442055,86.347145 79.124023,80.163658 
	C79.804649,73.992447 84.100021,70.029701 89.747665,68.060585 
	C99.815674,64.550262 110.061180,63.806675 120.855263,64.725876 
	C133.742981,65.823357 145.921021,68.983032 158.263580,72.375946 
	C164.063126,73.970215 171.334915,74.338799 176.764038,72.232658 
	C186.116882,68.604378 189.068390,59.342468 189.952576,49.895046 
	C191.586517,32.436787 183.095184,20.651079 168.137344,13.064714 
	C152.518448,5.143072 135.401062,2.886217 118.287994,2.234215 
	C105.003410,1.728077 91.598747,2.897421 78.319794,4.112513 
	C63.439766,5.474111 49.491680,10.123094 36.520939,17.806210 
	C19.421551,27.934900 7.614326,41.918491 2.936880,61.516937 
	C2.715192,62.445805 1.664580,63.176834 1.000000,64.000000 
	C1.000000,43.012611 1.000000,22.025225 1.000000,1.000000 
	C210.694702,1.000000 420.389404,1.000000 630.380493,1.404713 
	C616.926575,2.088049 603.842712,5.362543 590.907837,9.905520 
	C566.468689,18.489092 547.722839,34.241547 533.041138,55.100681 
	C519.310974,74.607948 512.979675,96.957359 511.243225,120.322487 
	C509.830811,139.327606 510.549500,158.491638 515.000122,177.258331 
	C521.298584,203.816696 534.541260,226.223465 555.916443,243.278488 
	C579.407410,262.021606 607.235168,269.267822 636.586365,270.785950 
	C648.684998,271.411774 660.906616,269.676971 673.071411,268.999207 
	C685.426941,268.310791 696.730164,263.973083 707.172241,257.830994 
	C715.108765,253.162689 721.910034,246.629440 723.418457,236.932114 
	C724.377319,230.767944 725.087219,224.090820 723.741211,218.133438 
	C720.065491,201.865219 711.838623,195.535614 695.151245,201.598495 
	C677.614929,207.969818 660.018005,210.855118 641.498779,208.041885 
	C629.144531,206.165161 618.330078,201.026215 609.278564,192.658096 
	C592.164917,176.836533 588.934570,155.692993 588.133362,133.942352 
	C587.926025,128.313339 589.209595,122.607117 590.021240,116.966995 
	C592.450134,100.089371 598.865967,85.377632 612.821106,74.627258 
	C628.003540,62.931488 645.581421,61.771530 663.522156,63.386902 
	C674.276794,64.355240 684.248718,68.606766 694.013855,73.352066 
	C701.088379,76.789902 710.833313,75.915176 715.657410,69.894547 
	C727.143188,55.559719 726.789978,35.882931 714.348877,23.008974 
	C702.131165,10.366045 686.134094,5.391859 669.176941,2.999920 
	C664.451294,2.333327 659.725647,1.666640 655.000000,0.999999 
	C1430.000000,1.000000 2205.000000,1.000000 2980.000000,1.000000 
	C2980.000000,12.421357 2980.000000,23.752724 2979.605957,35.395012 
	C2978.885254,23.775139 2974.868652,13.809750 2962.859131,9.566936 
	C2956.854004,7.445288 2950.248047,6.652752 2943.843750,6.150376 
	C2938.650635,5.742997 2933.320068,7.209002 2928.107910,6.894607 
	C2914.468994,6.071864 2906.827148,16.962812 2906.958252,28.246845 
	C2907.400391,66.327354 2907.636230,104.410233 2908.038574,142.491272 
	C2908.088623,147.237503 2908.709473,151.975708 2908.970215,156.722885 
	C2909.048828,158.159592 2908.805176,159.613998 2908.709229,161.060287 
	C2906.738525,159.382919 2905.769043,157.737518 2905.042969,155.991058 
	C2900.985840,146.235046 2897.364990,136.277634 2892.885498,126.721603 
	C2885.103271,110.120880 2876.841064,93.744164 2868.708984,77.308807 
	C2861.143066,62.017349 2853.617676,46.703197 2845.811523,31.534380 
	C2841.734131,23.611010 2836.147217,16.823051 2827.799805,13.009800 
	C2808.102539,4.012033 2787.773682,3.870595 2767.542969,10.338542 
	C2753.425537,14.852062 2749.264404,21.333628 2749.187500,34.396126 
	C2748.785156,102.553108 2748.928223,170.713913 2749.099121,238.872849 
	C2749.118652,246.617432 2751.748291,253.910233 2757.823242,259.248535 
	C2763.270752,264.035370 2770.132080,265.582703 2777.107422,265.912598 
	C2785.086670,266.289948 2793.102539,265.823700 2801.093750,266.040253 
	C2813.959473,266.388916 2820.982178,256.590698 2820.989990,245.923752 
	C2821.015869,209.594330 2821.010010,173.264862 2820.969482,136.935486 
	C2820.967285,135.161179 2820.343506,133.390060 2820.316895,131.612823 
	C2820.229492,125.779640 2820.284180,119.944344 2820.284180,114.109856 
	C2822.033447,114.888840 2822.997314,115.904884 2823.550049,117.109459 
	C2834.395752,140.732269 2845.052002,164.443268 2856.051270,187.994095 
	C2863.466309,203.870270 2871.242920,219.581177 2879.070801,235.259720 
	C2883.355957,243.843048 2888.083984,252.150604 2896.115234,258.043793 
	C2906.257568,265.486115 2918.111816,267.110748 2930.042725,267.850525 
	C2937.576904,268.317719 2945.269531,267.849365 2952.766357,266.858032 
	C2960.755859,265.801605 2968.927002,264.225494 2974.283447,257.143524 
	C2976.443115,254.288071 2978.109131,251.059021 2980.000000,247.999969 
	C2980.000000,255.991318 2980.000000,263.982635 2980.000000,272.000000 
	C2860.305420,272.000000 2740.610596,272.000000 2620.617676,271.596710 
	C2628.546631,270.120941 2636.993408,269.891876 2644.961182,267.821350 
	C2671.183594,261.007355 2693.953125,248.559494 2711.039062,226.629059 
	C2727.988525,204.874191 2736.523682,179.945328 2738.697998,153.051315 
	C2740.057373,136.236084 2739.713867,119.194855 2736.128662,102.339508 
	C2730.179199,74.371216 2717.925537,50.467979 2695.572021,31.919243 
	C2671.618652,12.043097 2643.619629,3.766559 2613.303955,2.118952 
	C2596.440186,1.202441 2579.766602,3.248467 2563.406982,7.937657 
	C2535.958252,15.805227 2513.587646,30.666681 2496.947998,54.099751 
	C2482.582764,74.329849 2476.151855,97.357841 2474.235352,121.485626 
	C2472.323486,145.554779 2474.400391,169.525253 2483.140381,192.425598 
	C2489.310059,208.591797 2497.698730,223.545410 2510.290771,235.548859 
	C2517.069092,242.010681 2524.638428,247.868500 2532.576416,252.840210 
	C2547.450439,262.156189 2563.859863,267.720123 2581.325439,270.022369 
	C2585.236084,270.537872 2589.109375,271.333405 2593.000000,272.000000 
M810.000000,223.499969 
	C810.000000,207.129364 810.000000,190.758759 810.000000,173.619919 
	C813.987671,177.943390 817.422424,181.444916 820.606262,185.161392 
	C829.857910,195.960663 838.955933,206.891678 848.216980,217.682800 
	C855.266052,225.896423 862.615051,233.855209 869.574280,242.142654 
	C879.812622,254.335083 890.947815,264.330139 907.995789,266.235779 
	C924.336121,268.062286 938.047852,264.494934 948.754700,251.699295 
	C956.679138,242.228806 957.895691,227.851318 949.022827,218.430344 
	C939.322876,208.131210 930.088257,197.395370 920.474487,187.013199 
	C909.578552,175.246338 898.450989,163.694244 887.498474,151.979294 
	C883.239563,147.423904 879.183594,142.678757 874.853027,137.815506 
	C875.366577,137.241943 875.876099,136.624619 876.434937,136.055801 
	C895.306946,116.846458 914.370544,97.820503 932.982056,78.362099 
	C942.492554,68.418884 948.785339,57.017696 948.219971,42.261028 
	C947.775330,30.653902 942.675110,22.477291 933.831665,16.017473 
	C926.910034,10.961425 918.717651,9.478829 910.509827,7.606769 
	C901.878357,5.638081 888.321411,10.904067 883.297974,17.171108 
	C878.087952,23.670984 872.659485,30.001339 867.183594,36.281200 
	C859.414307,45.191322 851.422668,53.908318 843.691711,62.851070 
	C832.419434,75.890366 821.294495,89.057014 809.320007,103.091385 
	C809.169861,100.368523 809.012451,98.828186 809.011047,97.287704 
	C808.993958,78.792152 809.068359,60.296162 808.954224,41.801304 
	C808.923950,36.893898 808.909180,31.864241 807.872742,27.111973 
	C806.014648,18.591465 801.835754,11.986421 792.699951,8.808688 
	C779.919556,4.363216 766.818054,4.522108 753.797180,5.201040 
	C741.257996,5.854859 734.026917,13.704000 734.020630,24.773987 
	C733.980225,95.590309 733.677429,166.409409 734.279602,237.220627 
	C734.396179,250.935013 738.415344,258.592957 753.211853,262.908417 
	C758.278748,264.386169 763.767517,264.747498 769.088745,264.946991 
	C777.393066,265.258270 785.880127,266.000824 793.990845,264.698944 
	C802.303528,263.364594 808.139648,258.241272 808.933716,248.706604 
	C809.603577,240.663910 809.667725,232.570755 810.000000,223.499969 
M1764.774902,5.000005 
	C1751.989502,6.702592 1742.918579,10.250957 1742.960449,27.783968 
	C1743.075195,75.938759 1742.927490,124.094261 1743.087646,172.248795 
	C1743.108765,178.575684 1743.981445,184.956177 1745.042725,191.212936 
	C1748.732666,212.966507 1759.172363,230.788589 1776.285278,244.875565 
	C1796.206543,261.274139 1819.580322,268.224670 1844.676147,269.832764 
	C1859.091553,270.756500 1873.544922,270.087341 1887.909546,267.142395 
	C1905.936279,263.446716 1922.387085,256.543610 1936.479736,244.853119 
	C1957.956909,227.036942 1969.291016,203.348206 1969.704224,175.904251 
	C1970.429932,127.684341 1969.567627,79.433434 1968.832397,31.203707 
	C1968.652954,19.438931 1962.670044,11.490499 1951.000977,7.978852 
	C1938.665405,4.266711 1925.930786,4.418777 1913.360474,5.273694 
	C1907.179565,5.694067 1900.344849,8.079857 1897.402832,14.491027 
	C1895.378540,18.902750 1894.164429,24.099083 1894.140747,28.952272 
	C1893.907715,76.772949 1894.312500,124.598534 1893.803223,172.414932 
	C1893.656982,186.145721 1887.511597,197.475052 1874.466064,204.217026 
	C1866.831665,208.162521 1858.998413,208.807922 1850.671631,208.076035 
	C1843.293213,207.427475 1837.019531,204.680740 1831.457275,199.953094 
	C1821.008545,191.071899 1818.182617,178.953201 1818.101440,166.204880 
	C1817.832764,124.050079 1818.029663,81.892441 1817.955811,39.736053 
	C1817.948120,35.329857 1817.944458,30.766216 1816.860962,26.552824 
	C1814.745117,18.325010 1810.625732,11.855017 1801.640259,8.785833 
	C1789.828125,4.751096 1777.810059,5.092089 1764.774902,5.000005 
M2045.002563,234.568558 
	C2047.094360,226.712509 2049.186279,218.856461 2051.237305,211.152893 
	C2075.705566,211.152893 2099.672363,211.152893 2123.566895,211.152893 
	C2126.443604,222.002548 2128.747559,232.871185 2132.284912,243.322281 
	C2134.962402,251.233154 2138.552734,259.293182 2147.035889,262.944794 
	C2162.939453,269.790558 2179.174316,269.458435 2195.420654,264.134583 
	C2205.147949,260.947052 2209.251709,255.480301 2208.891113,245.445267 
	C2208.718262,240.639053 2207.817383,235.753967 2206.511963,231.111038 
	C2199.478760,206.095703 2192.355957,181.103531 2184.999268,156.181564 
	C2173.106445,115.893005 2161.107910,75.634743 2148.902344,35.440166 
	C2146.709229,28.218412 2143.433838,21.548418 2136.649414,16.844471 
	C2125.454834,9.082563 2112.810547,6.100422 2099.759766,5.180824 
	C2086.167236,4.223031 2072.402588,4.342402 2059.099854,8.082798 
	C2046.578613,11.603432 2035.761108,18.270084 2031.187012,30.900795 
	C2020.006958,61.773190 2009.299927,92.829346 1999.078979,124.033089 
	C1989.050903,154.647949 1979.739746,185.500519 1970.383057,216.330383 
	C1968.098389,223.857910 1965.476562,231.273773 1965.805542,239.569550 
	C1966.225830,250.167496 1970.995361,257.418213 1980.033691,261.935577 
	C1993.508057,268.670197 2007.961304,268.906311 2022.443237,266.708038 
	C2030.542969,265.478516 2036.662109,260.769592 2039.560059,252.846390 
	C2041.647461,247.139191 2043.204102,241.237961 2045.002563,234.568558 
M1246.548462,22.969246 
	C1237.263672,29.726398 1229.945923,38.317913 1225.230957,48.661194 
	C1218.344482,63.767994 1217.383423,79.819839 1220.026001,96.078171 
	C1222.978638,114.245270 1232.055786,128.446152 1247.241333,139.111694 
	C1263.279541,150.376099 1281.581543,156.357101 1299.646973,162.971283 
	C1309.273560,166.495773 1319.259277,169.141006 1328.628052,173.226303 
	C1333.584839,175.387680 1338.911499,178.942795 1341.676392,183.365784 
	C1345.876343,190.084610 1341.598389,198.883331 1333.370728,203.094650 
	C1319.019165,210.440384 1303.855103,208.688858 1288.803467,206.304321 
	C1276.136719,204.297607 1264.690552,198.822250 1253.271118,193.152435 
	C1239.619141,186.374008 1229.432495,191.217392 1223.089478,203.066528 
	C1213.786621,220.444336 1219.466797,241.956848 1237.161011,253.136444 
	C1255.296997,264.595154 1275.413940,268.455994 1296.135010,269.808136 
	C1307.482544,270.548645 1318.965210,269.493469 1330.373657,268.964539 
	C1348.678467,268.115936 1366.134521,263.726624 1382.245117,254.913483 
	C1395.865234,247.462601 1406.912354,237.278091 1414.029297,223.129761 
	C1421.694702,207.891342 1422.177124,191.887573 1420.028931,175.443588 
	C1417.066284,152.767410 1403.922485,137.153915 1385.614624,124.949013 
	C1369.521484,114.220512 1351.475342,108.056541 1333.356567,101.915001 
	C1322.933105,98.381874 1312.540649,94.570595 1302.577637,89.932205 
	C1296.183472,86.955254 1295.025757,79.905495 1299.401245,74.369247 
	C1301.511963,71.698494 1304.671875,69.305855 1307.852905,68.134125 
	C1317.858521,64.448425 1328.126953,63.770634 1338.936523,64.715569 
	C1351.825195,65.842239 1364.061157,68.748932 1376.303223,72.564690 
	C1384.004883,74.965225 1392.238525,76.013458 1398.994019,69.925278 
	C1404.689331,64.792587 1407.258179,57.836384 1407.971313,50.304867 
	C1409.620239,32.891636 1401.470825,20.873468 1386.489868,13.231101 
	C1370.435669,5.041226 1352.821289,3.025975 1335.183350,2.152427 
	C1324.973999,1.646791 1314.654419,2.262209 1304.448975,3.130662 
	C1296.585083,3.799858 1288.768433,5.396802 1281.025879,7.031886 
	C1268.605591,9.654823 1257.490234,15.344440 1246.548462,22.969246 
M1173.048706,53.562809 
	C1175.611206,46.263607 1177.028320,38.787716 1174.928345,31.183317 
	C1172.277832,21.585188 1166.939087,14.438992 1156.982788,10.856435 
	C1146.241577,6.991444 1135.507080,7.477676 1124.594971,9.003019 
	C1114.073364,10.473774 1105.327515,14.758948 1101.026489,25.127075 
	C1091.575684,47.909763 1082.357056,70.788567 1072.970459,93.598106 
	C1071.038940,98.292152 1068.789062,102.855263 1066.241699,108.455070 
	C1053.634766,83.267517 1042.075073,59.530090 1029.908936,36.107658 
	C1022.695801,22.221003 1013.221497,10.828977 995.891907,8.819603 
	C983.796570,7.417145 972.408142,7.492707 961.444092,13.851027 
	C950.267029,20.332899 946.227905,31.816425 951.406372,42.574364 
	C960.180725,60.802425 969.025208,79.095055 979.381409,96.440376 
	C995.053162,122.688499 1012.069946,148.132706 1028.419678,173.978958 
	C1029.381226,175.499069 1029.923584,177.554443 1029.933716,179.364807 
	C1030.040649,198.528778 1029.714478,217.699020 1030.079712,236.856613 
	C1030.450195,256.288208 1040.910889,263.312927 1057.528931,264.853088 
	C1066.449463,265.679840 1075.521484,265.286194 1084.503296,264.915436 
	C1092.670166,264.578369 1099.125854,261.403992 1101.803833,252.257019 
	C1103.109985,247.795837 1103.851562,243.015076 1103.904663,238.368179 
	C1104.129639,218.706238 1103.980713,199.040192 1104.036865,179.375824 
	C1104.041382,177.815613 1104.160156,176.011444 1104.922241,174.736984 
	C1110.203613,165.904556 1115.788208,157.253128 1121.051270,148.410110 
	C1131.657959,130.588806 1142.444214,112.862106 1152.537109,94.751312 
	C1159.873779,81.586494 1166.216064,67.867500 1173.048706,53.562809 
M344.000000,136.500000 
	C344.000000,114.408585 344.000000,92.317162 344.000000,70.000000 
	C360.366821,70.000000 376.171875,70.046272 391.976532,69.982498 
	C401.331970,69.944756 411.408569,62.954277 414.197021,54.074829 
	C416.916565,45.414936 417.446777,36.844723 415.903320,28.159426 
	C413.351990,13.803058 406.577972,8.300761 395.492859,8.212883 
	C337.847687,7.755895 280.196503,7.883667 222.548737,8.127880 
	C214.088577,8.163721 207.063049,11.987996 202.930771,20.160389 
	C198.029129,29.854311 198.504318,39.863373 199.930313,50.178837 
	C201.702347,62.997543 208.775650,69.541939 221.839478,69.899384 
	C237.436569,70.326149 253.054276,70.000000 269.000000,70.000000 
	C269.000000,72.242439 269.000000,74.037689 269.000000,75.832939 
	C269.000000,128.983109 268.654938,182.136688 269.179413,235.281693 
	C269.373840,254.983292 279.126434,263.445801 298.682861,264.890228 
	C307.463684,265.538757 316.332733,265.058563 325.160858,264.985382 
	C336.525421,264.891174 344.088226,256.236420 344.050964,245.966156 
	C343.919800,209.811188 344.000000,173.655441 344.000000,136.500000 
M1545.550537,8.000000 
	C1544.051147,8.000000 1542.549316,7.945343 1541.052612,8.008816 
	C1530.867676,8.440722 1523.041748,12.328614 1518.900513,22.335787 
	C1515.120728,31.469599 1515.612305,40.691242 1516.926025,50.175938 
	C1518.702637,63.001999 1525.783325,69.542038 1538.836670,69.899300 
	C1554.434204,70.326202 1570.052368,70.000000 1586.000000,70.000000 
	C1586.000000,72.240738 1586.000000,74.035820 1586.000000,75.830910 
	C1586.000000,128.981934 1585.654785,182.136353 1586.179443,235.282196 
	C1586.373779,254.982452 1596.125610,263.446106 1615.683838,264.890259 
	C1624.464844,265.538605 1633.333984,265.058838 1642.162231,264.985291 
	C1653.525757,264.890625 1661.069214,256.235535 1661.050171,245.964310 
	C1660.945312,189.147903 1661.000000,132.331177 1661.000000,75.514565 
	C1661.000000,73.748871 1661.000000,71.983170 1661.000000,70.000000 
	C1677.371094,70.000000 1693.176880,70.046494 1708.982178,69.982407 
	C1718.327393,69.944511 1728.412842,62.950695 1731.198853,54.069099 
	C1733.915894,45.407581 1734.368164,36.854546 1732.919189,28.149454 
	C1730.627930,14.384515 1722.819946,7.902328 1708.488525,7.941215 
	C1654.504761,8.087696 1600.520508,8.000000 1545.550537,8.000000 
M2357.062988,69.998749 
	C2368.902100,68.039162 2376.112793,60.998135 2378.731934,49.488800 
	C2380.559570,41.457603 2379.764893,33.434418 2378.140625,25.305082 
	C2375.949707,14.340619 2368.291016,8.180768 2358.400146,8.133886 
	C2300.747803,7.860624 2243.092773,7.872379 2185.440186,8.140938 
	C2177.023193,8.180146 2169.971680,11.998267 2165.914062,20.268169 
	C2160.415771,31.473595 2161.231445,42.855690 2163.894775,54.484180 
	C2165.652832,62.160229 2170.360352,67.205582 2177.806641,68.764946 
	C2183.523438,69.962196 2189.554688,69.873932 2195.451416,69.951950 
	C2207.549561,70.112000 2219.651367,70.000000 2232.000000,70.000000 
	C2232.000000,72.341324 2232.000000,74.147667 2232.000000,75.954010 
	C2232.000000,129.108780 2231.898682,182.263947 2232.098633,235.417969 
	C2232.132324,244.399689 2234.501221,252.956146 2242.309814,258.768250 
	C2247.773682,262.834991 2254.188965,264.619629 2260.818359,264.904144 
	C2269.797852,265.289490 2278.806641,264.973541 2287.802734,265.006592 
	C2299.466064,265.049438 2307.095947,256.075806 2307.069580,245.821823 
	C2306.924072,189.001587 2307.000000,132.180771 2307.000000,75.360153 
	C2307.000000,73.609283 2307.000000,71.858406 2307.000000,69.999924 
	C2323.830811,69.999924 2339.985596,69.999924 2357.062988,69.998749 
M1431.000000,212.500000 
	C1431.000000,220.495560 1430.629639,228.514832 1431.139648,236.477737 
	C1431.442871,241.213135 1432.383911,246.202011 1434.343140,250.479187 
	C1439.243774,261.178009 1449.263794,264.122498 1459.844482,264.875336 
	C1468.460693,265.488464 1477.156006,264.935791 1485.815186,265.015137 
	C1498.585083,265.132172 1505.966797,257.233154 1505.975952,244.817871 
	C1506.026489,176.689713 1506.019409,108.561501 1505.957031,40.433365 
	C1505.952881,35.862301 1505.921265,31.150854 1504.869995,26.751402 
	C1502.889038,18.461107 1498.725220,11.956007 1489.838745,8.835174 
	C1477.084595,4.356015 1463.977173,4.538383 1450.953735,5.182202 
	C1437.448730,5.849824 1431.000122,13.661678 1431.000000,27.104153 
	C1430.999878,88.569435 1431.000000,150.034714 1431.000000,212.500000 
M2389.000000,161.500000 
	C2389.000000,186.485962 2388.838379,211.473892 2389.144043,236.456085 
	C2389.201416,241.156082 2390.376465,246.173737 2392.330322,250.453888 
	C2397.217773,261.161743 2407.242676,264.107147 2417.816162,264.873108 
	C2426.430664,265.497162 2435.127441,264.933044 2443.786377,265.015778 
	C2456.602051,265.138245 2463.964111,257.224396 2463.974121,244.846237 
	C2464.028320,176.718079 2464.019287,108.589867 2463.957031,40.461739 
	C2463.952637,35.890690 2463.902344,31.187260 2462.875000,26.778055 
	C2460.935059,18.452566 2456.706055,11.981324 2447.864258,8.846664 
	C2435.122314,4.329254 2422.007568,4.553817 2408.981934,5.177907 
	C2395.496582,5.824021 2389.000244,13.653099 2389.000244,27.075363 
	C2389.000000,71.550240 2389.000000,116.025124 2389.000000,161.500000 
M426.000000,167.500000 
	C426.000000,190.487061 425.825684,213.476532 426.144318,236.459183 
	C426.209534,241.160553 427.377533,246.176651 429.331390,250.456894 
	C434.219727,261.165497 444.246887,264.106537 454.819489,264.873016 
	C463.434082,265.497559 472.130707,264.933258 480.789795,265.015717 
	C493.599396,265.137695 500.964630,257.225159 500.974365,244.843094 
	C501.028015,176.714996 501.019257,108.586830 500.956940,40.458755 
	C500.952759,35.887703 500.905945,31.182825 499.874207,26.775381 
	C497.926880,18.456564 493.706207,11.979328 484.861206,8.845746 
	C472.118286,4.331233 459.004150,4.552065 445.978668,5.178394 
	C432.491119,5.826944 426.000122,13.654021 426.000061,27.078857 
	C425.999878,73.552574 426.000000,120.026283 426.000000,167.500000 
z"/>
<path fill="#000000" opacity="1.000000" stroke="none" 
	d="
M2980.000000,247.666641 
	C2978.109131,251.059021 2976.443115,254.288071 2974.283447,257.143524 
	C2968.927002,264.225494 2960.755859,265.801605 2952.766357,266.858032 
	C2945.269531,267.849365 2937.576904,268.317719 2930.042725,267.850525 
	C2918.111816,267.110748 2906.257568,265.486115 2896.115234,258.043793 
	C2888.083984,252.150604 2883.355957,243.843048 2879.070801,235.259720 
	C2871.242920,219.581177 2863.466309,203.870270 2856.051270,187.994095 
	C2845.052002,164.443268 2834.395752,140.732269 2823.550049,117.109459 
	C2822.997314,115.904884 2822.033447,114.888840 2820.284180,114.109856 
	C2820.284180,119.944344 2820.229492,125.779640 2820.316895,131.612823 
	C2820.343506,133.390060 2820.967285,135.161179 2820.969482,136.935486 
	C2821.010010,173.264862 2821.015869,209.594330 2820.989990,245.923752 
	C2820.982178,256.590698 2813.959473,266.388916 2801.093750,266.040253 
	C2793.102539,265.823700 2785.086670,266.289948 2777.107422,265.912598 
	C2770.132080,265.582703 2763.270752,264.035370 2757.823242,259.248535 
	C2751.748291,253.910233 2749.118652,246.617432 2749.099121,238.872849 
	C2748.928223,170.713913 2748.785156,102.553108 2749.187500,34.396126 
	C2749.264404,21.333628 2753.425537,14.852062 2767.542969,10.338542 
	C2787.773682,3.870595 2808.102539,4.012033 2827.799805,13.009800 
	C2836.147217,16.823051 2841.734131,23.611010 2845.811523,31.534380 
	C2853.617676,46.703197 2861.143066,62.017349 2868.708984,77.308807 
	C2876.841064,93.744164 2885.103271,110.120880 2892.885498,126.721603 
	C2897.364990,136.277634 2900.985840,146.235046 2905.042969,155.991058 
	C2905.769043,157.737518 2906.738525,159.382919 2908.709229,161.060287 
	C2908.805176,159.613998 2909.048828,158.159592 2908.970215,156.722885 
	C2908.709473,151.975708 2908.088623,147.237503 2908.038574,142.491272 
	C2907.636230,104.410233 2907.400391,66.327354 2906.958252,28.246845 
	C2906.827148,16.962812 2914.468994,6.071864 2928.107910,6.894607 
	C2933.320068,7.209002 2938.650635,5.742997 2943.843750,6.150376 
	C2950.248047,6.652752 2956.854004,7.445288 2962.859131,9.566936 
	C2974.868652,13.809750 2978.885254,23.775139 2979.605957,35.852966 
	C2980.000000,104.687561 2980.000000,173.375122 2979.660156,242.615082 
	C2979.546631,244.111664 2979.773438,245.055832 2980.000000,246.000000 
	C2980.000000,246.444443 2980.000000,246.888901 2980.000000,247.666641 
z"/>
<path fill="#000000" opacity="1.000000" stroke="none" 
	d="
M2593.468750,272.000000 
	C2589.109375,271.333405 2585.236084,270.537872 2581.325439,270.022369 
	C2563.859863,267.720123 2547.450439,262.156189 2532.576416,252.840210 
	C2524.638428,247.868500 2517.069092,242.010681 2510.290771,235.548859 
	C2497.698730,223.545410 2489.310059,208.591797 2483.140381,192.425598 
	C2474.400391,169.525253 2472.323486,145.554779 2474.235352,121.485626 
	C2476.151855,97.357841 2482.582764,74.329849 2496.947998,54.099751 
	C2513.587646,30.666681 2535.958252,15.805227 2563.406982,7.937657 
	C2579.766602,3.248467 2596.440186,1.202441 2613.303955,2.118952 
	C2643.619629,3.766559 2671.618652,12.043097 2695.572021,31.919243 
	C2717.925537,50.467979 2730.179199,74.371216 2736.128662,102.339508 
	C2739.713867,119.194855 2740.057373,136.236084 2738.697998,153.051315 
	C2736.523682,179.945328 2727.988525,204.874191 2711.039062,226.629059 
	C2693.953125,248.559494 2671.183594,261.007355 2644.961182,267.821350 
	C2636.993408,269.891876 2628.546631,270.120941 2620.159668,271.596710 
	C2611.312500,272.000000 2602.625000,272.000000 2593.468750,272.000000 
M2619.296631,65.001457 
	C2612.562500,64.668060 2605.659668,63.263844 2599.139404,64.289787 
	C2592.020996,65.409859 2584.671387,67.771797 2578.459473,71.378426 
	C2565.334229,78.998795 2558.597412,91.687279 2555.056885,106.040672 
	C2552.009521,118.394127 2550.413086,130.964417 2552.029541,143.710434 
	C2553.211914,153.029694 2553.917480,162.503860 2556.202148,171.564377 
	C2558.906250,182.288513 2564.405273,191.702591 2573.157959,199.078049 
	C2583.786621,208.034180 2596.048340,210.417801 2609.502686,210.085342 
	C2630.372070,209.569656 2644.493652,199.158020 2653.403809,181.031418 
	C2659.816895,167.984818 2661.267090,153.690948 2661.830078,139.452026 
	C2662.125000,131.992554 2660.507812,124.473747 2660.039062,116.963936 
	C2659.336670,105.709541 2655.267334,95.461906 2649.436523,86.221237 
	C2642.673828,75.503113 2632.760986,68.171951 2619.296631,65.001457 
z"/>
<path fill="#000000" opacity="1.000000" stroke="none" 
	d="
M1.000000,64.468658 
	C1.664580,63.176834 2.715192,62.445805 2.936880,61.516937 
	C7.614326,41.918491 19.421551,27.934900 36.520939,17.806210 
	C49.491680,10.123094 63.439766,5.474111 78.319794,4.112513 
	C91.598747,2.897421 105.003410,1.728077 118.287994,2.234215 
	C135.401062,2.886217 152.518448,5.143072 168.137344,13.064714 
	C183.095184,20.651079 191.586517,32.436787 189.952576,49.895046 
	C189.068390,59.342468 186.116882,68.604378 176.764038,72.232658 
	C171.334915,74.338799 164.063126,73.970215 158.263580,72.375946 
	C145.921021,68.983032 133.742981,65.823357 120.855263,64.725876 
	C110.061180,63.806675 99.815674,64.550262 89.747665,68.060585 
	C84.100021,70.029701 79.804649,73.992447 79.124023,80.163658 
	C78.442055,86.347145 82.617767,89.890450 87.775803,92.280540 
	C90.676414,93.624588 93.617867,94.915031 96.629288,95.979652 
	C112.785660,101.691437 129.171951,106.813721 145.093643,113.113159 
	C165.382614,121.140533 183.428894,132.861343 194.385513,152.349960 
	C198.831451,160.257980 201.614487,169.726624 202.649872,178.771805 
	C204.019424,190.736359 203.905670,203.076294 199.643265,214.804245 
	C193.907578,230.585907 183.779633,242.881485 169.608292,251.729706 
	C156.789902,259.733154 142.780975,264.400543 127.858788,267.178070 
	C111.311913,270.257996 94.683853,270.728607 78.110970,269.793549 
	C57.388496,268.624359 37.084686,264.895416 19.190508,253.063812 
	C12.648230,248.738068 7.407480,243.437790 4.002279,236.342300 
	C3.428242,235.146164 2.514820,234.112885 1.379105,233.002182 
	C1.000000,225.312424 1.000000,217.624832 1.388739,209.465515 
	C2.163461,208.763428 2.800049,208.611053 2.899445,208.291565 
	C7.592803,193.205490 20.878824,185.103271 37.073090,193.969971 
	C57.991615,205.423279 80.179878,210.606918 104.109230,207.057526 
	C111.557785,205.952698 117.756645,202.915100 122.391563,197.043411 
	C126.635422,191.667145 126.365463,183.682693 120.791809,179.621994 
	C115.320343,175.635757 109.010170,172.445328 102.623367,170.134949 
	C80.046700,161.968002 56.744610,155.681198 35.823849,143.374573 
	C22.017069,135.252747 11.026953,124.704559 5.583350,109.176292 
	C4.253084,105.381615 2.538100,101.721817 1.000000,98.000000 
	C1.000000,86.979103 1.000000,75.958214 1.000000,64.468658 
z"/>
<path fill="#000000" opacity="1.000000" stroke="none" 
	d="
M654.531372,0.999999 
	C659.725647,1.666640 664.451294,2.333327 669.176941,2.999920 
	C686.134094,5.391859 702.131165,10.366045 714.348877,23.008974 
	C726.789978,35.882931 727.143188,55.559719 715.657410,69.894547 
	C710.833313,75.915176 701.088379,76.789902 694.013855,73.352066 
	C684.248718,68.606766 674.276794,64.355240 663.522156,63.386902 
	C645.581421,61.771530 628.003540,62.931488 612.821106,74.627258 
	C598.865967,85.377632 592.450134,100.089371 590.021240,116.966995 
	C589.209595,122.607117 587.926025,128.313339 588.133362,133.942352 
	C588.934570,155.692993 592.164917,176.836533 609.278564,192.658096 
	C618.330078,201.026215 629.144531,206.165161 641.498779,208.041885 
	C660.018005,210.855118 677.614929,207.969818 695.151245,201.598495 
	C711.838623,195.535614 720.065491,201.865219 723.741211,218.133438 
	C725.087219,224.090820 724.377319,230.767944 723.418457,236.932114 
	C721.910034,246.629440 715.108765,253.162689 707.172241,257.830994 
	C696.730164,263.973083 685.426941,268.310791 673.071411,268.999207 
	C660.906616,269.676971 648.684998,271.411774 636.586365,270.785950 
	C607.235168,269.267822 579.407410,262.021606 555.916443,243.278488 
	C534.541260,226.223465 521.298584,203.816696 515.000122,177.258331 
	C510.549500,158.491638 509.830811,139.327606 511.243225,120.322487 
	C512.979675,96.957359 519.310974,74.607948 533.041138,55.100681 
	C547.722839,34.241547 566.468689,18.489092 590.907837,9.905520 
	C603.842712,5.362543 616.926575,2.088049 630.838379,1.404713 
	C638.687561,1.000000 646.375183,1.000000 654.531372,0.999999 
z"/>
<path fill="#FFFFFF" opacity="1.000000" stroke="none" 
	d="
M1.000000,98.468658 
	C2.538100,101.721817 4.253084,105.381615 5.583350,109.176292 
	C11.026953,124.704559 22.017069,135.252747 35.823849,143.374573 
	C56.744610,155.681198 80.046700,161.968002 102.623367,170.134949 
	C109.010170,172.445328 115.320343,175.635757 120.791809,179.621994 
	C126.365463,183.682693 126.635422,191.667145 122.391563,197.043411 
	C117.756645,202.915100 111.557785,205.952698 104.109230,207.057526 
	C80.179878,210.606918 57.991615,205.423279 37.073090,193.969971 
	C20.878824,185.103271 7.592803,193.205490 2.899445,208.291565 
	C2.800049,208.611053 2.163461,208.763428 1.388739,208.996887 
	C1.000000,172.312439 1.000000,135.624878 1.000000,98.468658 
z"/>
<path fill="#FFFFFF" opacity="1.000000" stroke="none" 
	d="
M2980.000000,245.625000 
	C2979.773438,245.055832 2979.546631,244.111664 2979.660156,243.083740 
	C2980.000000,243.750000 2980.000000,244.500000 2980.000000,245.625000 
z"/>
<path fill="#000000" opacity="1.000000" stroke="none" 
	d="
M810.000000,223.999954 
	C809.667725,232.570755 809.603577,240.663910 808.933716,248.706604 
	C808.139648,258.241272 802.303528,263.364594 793.990845,264.698944 
	C785.880127,266.000824 777.393066,265.258270 769.088745,264.946991 
	C763.767517,264.747498 758.278748,264.386169 753.211853,262.908417 
	C738.415344,258.592957 734.396179,250.935013 734.279602,237.220627 
	C733.677429,166.409409 733.980225,95.590309 734.020630,24.773987 
	C734.026917,13.704000 741.257996,5.854859 753.797180,5.201040 
	C766.818054,4.522108 779.919556,4.363216 792.699951,8.808688 
	C801.835754,11.986421 806.014648,18.591465 807.872742,27.111973 
	C808.909180,31.864241 808.923950,36.893898 808.954224,41.801304 
	C809.068359,60.296162 808.993958,78.792152 809.011047,97.287704 
	C809.012451,98.828186 809.169861,100.368523 809.320007,103.091385 
	C821.294495,89.057014 832.419434,75.890366 843.691711,62.851070 
	C851.422668,53.908318 859.414307,45.191322 867.183594,36.281200 
	C872.659485,30.001339 878.087952,23.670984 883.297974,17.171108 
	C888.321411,10.904067 901.878357,5.638081 910.509827,7.606769 
	C918.717651,9.478829 926.910034,10.961425 933.831665,16.017473 
	C942.675110,22.477291 947.775330,30.653902 948.219971,42.261028 
	C948.785339,57.017696 942.492554,68.418884 932.982056,78.362099 
	C914.370544,97.820503 895.306946,116.846458 876.434937,136.055801 
	C875.876099,136.624619 875.366577,137.241943 874.853027,137.815506 
	C879.183594,142.678757 883.239563,147.423904 887.498474,151.979294 
	C898.450989,163.694244 909.578552,175.246338 920.474487,187.013199 
	C930.088257,197.395370 939.322876,208.131210 949.022827,218.430344 
	C957.895691,227.851318 956.679138,242.228806 948.754700,251.699295 
	C938.047852,264.494934 924.336121,268.062286 907.995789,266.235779 
	C890.947815,264.330139 879.812622,254.335083 869.574280,242.142654 
	C862.615051,233.855209 855.266052,225.896423 848.216980,217.682800 
	C838.955933,206.891678 829.857910,195.960663 820.606262,185.161392 
	C817.422424,181.444916 813.987671,177.943390 810.000000,173.619919 
	C810.000000,190.758759 810.000000,207.129364 810.000000,223.999954 
z"/>
<path fill="#000000" opacity="1.000000" stroke="none" 
	d="
M1765.247925,5.000003 
	C1777.810059,5.092089 1789.828125,4.751096 1801.640259,8.785833 
	C1810.625732,11.855017 1814.745117,18.325010 1816.860962,26.552824 
	C1817.944458,30.766216 1817.948120,35.329857 1817.955811,39.736053 
	C1818.029663,81.892441 1817.832764,124.050079 1818.101440,166.204880 
	C1818.182617,178.953201 1821.008545,191.071899 1831.457275,199.953094 
	C1837.019531,204.680740 1843.293213,207.427475 1850.671631,208.076035 
	C1858.998413,208.807922 1866.831665,208.162521 1874.466064,204.217026 
	C1887.511597,197.475052 1893.656982,186.145721 1893.803223,172.414932 
	C1894.312500,124.598534 1893.907715,76.772949 1894.140747,28.952272 
	C1894.164429,24.099083 1895.378540,18.902750 1897.402832,14.491027 
	C1900.344849,8.079857 1907.179565,5.694067 1913.360474,5.273694 
	C1925.930786,4.418777 1938.665405,4.266711 1951.000977,7.978852 
	C1962.670044,11.490499 1968.652954,19.438931 1968.832397,31.203707 
	C1969.567627,79.433434 1970.429932,127.684341 1969.704224,175.904251 
	C1969.291016,203.348206 1957.956909,227.036942 1936.479736,244.853119 
	C1922.387085,256.543610 1905.936279,263.446716 1887.909546,267.142395 
	C1873.544922,270.087341 1859.091553,270.756500 1844.676147,269.832764 
	C1819.580322,268.224670 1796.206543,261.274139 1776.285278,244.875565 
	C1759.172363,230.788589 1748.732666,212.966507 1745.042725,191.212936 
	C1743.981445,184.956177 1743.108765,178.575684 1743.087646,172.248795 
	C1742.927490,124.094261 1743.075195,75.938759 1742.960449,27.783968 
	C1742.918579,10.250957 1751.989502,6.702592 1765.247925,5.000003 
z"/>
<path fill="#000000" opacity="1.000000" stroke="none" 
	d="
M2045.000000,234.995911 
	C2043.204102,241.237961 2041.647461,247.139191 2039.560059,252.846390 
	C2036.662109,260.769592 2030.542969,265.478516 2022.443237,266.708038 
	C2007.961304,268.906311 1993.508057,268.670197 1980.033691,261.935577 
	C1970.995361,257.418213 1966.225830,250.167496 1965.805542,239.569550 
	C1965.476562,231.273773 1968.098389,223.857910 1970.383057,216.330383 
	C1979.739746,185.500519 1989.050903,154.647949 1999.078979,124.033089 
	C2009.299927,92.829346 2020.006958,61.773190 2031.187012,30.900795 
	C2035.761108,18.270084 2046.578613,11.603432 2059.099854,8.082798 
	C2072.402588,4.342402 2086.167236,4.223031 2099.759766,5.180824 
	C2112.810547,6.100422 2125.454834,9.082563 2136.649414,16.844471 
	C2143.433838,21.548418 2146.709229,28.218412 2148.902344,35.440166 
	C2161.107910,75.634743 2173.106445,115.893005 2184.999268,156.181564 
	C2192.355957,181.103531 2199.478760,206.095703 2206.511963,231.111038 
	C2207.817383,235.753967 2208.718262,240.639053 2208.891113,245.445267 
	C2209.251709,255.480301 2205.147949,260.947052 2195.420654,264.134583 
	C2179.174316,269.458435 2162.939453,269.790558 2147.035889,262.944794 
	C2138.552734,259.293182 2134.962402,251.233154 2132.284912,243.322281 
	C2128.747559,232.871185 2126.443604,222.002548 2123.566895,211.152893 
	C2099.672363,211.152893 2075.705566,211.152893 2051.237305,211.152893 
	C2049.186279,218.856461 2047.094360,226.712509 2045.000000,234.995911 
M2099.465576,108.975365 
	C2097.878418,103.085228 2096.355957,97.176697 2094.685547,91.310196 
	C2093.068115,85.628860 2091.298828,79.990746 2089.596436,74.333649 
	C2089.255127,74.302963 2088.913818,74.272285 2088.572754,74.241608 
	C2080.201172,99.978973 2071.829590,125.716339 2063.351318,151.782227 
	C2079.969971,151.782227 2095.409424,151.782227 2111.108887,151.782227 
	C2107.345215,137.563568 2103.652588,123.612358 2099.465576,108.975365 
z"/>
<path fill="#000000" opacity="1.000000" stroke="none" 
	d="
M1246.799683,22.701878 
	C1257.490234,15.344440 1268.605591,9.654823 1281.025879,7.031886 
	C1288.768433,5.396802 1296.585083,3.799858 1304.448975,3.130662 
	C1314.654419,2.262209 1324.973999,1.646791 1335.183350,2.152427 
	C1352.821289,3.025975 1370.435669,5.041226 1386.489868,13.231101 
	C1401.470825,20.873468 1409.620239,32.891636 1407.971313,50.304867 
	C1407.258179,57.836384 1404.689331,64.792587 1398.994019,69.925278 
	C1392.238525,76.013458 1384.004883,74.965225 1376.303223,72.564690 
	C1364.061157,68.748932 1351.825195,65.842239 1338.936523,64.715569 
	C1328.126953,63.770634 1317.858521,64.448425 1307.852905,68.134125 
	C1304.671875,69.305855 1301.511963,71.698494 1299.401245,74.369247 
	C1295.025757,79.905495 1296.183472,86.955254 1302.577637,89.932205 
	C1312.540649,94.570595 1322.933105,98.381874 1333.356567,101.915001 
	C1351.475342,108.056541 1369.521484,114.220512 1385.614624,124.949013 
	C1403.922485,137.153915 1417.066284,152.767410 1420.028931,175.443588 
	C1422.177124,191.887573 1421.694702,207.891342 1414.029297,223.129761 
	C1406.912354,237.278091 1395.865234,247.462601 1382.245117,254.913483 
	C1366.134521,263.726624 1348.678467,268.115936 1330.373657,268.964539 
	C1318.965210,269.493469 1307.482544,270.548645 1296.135010,269.808136 
	C1275.413940,268.455994 1255.296997,264.595154 1237.161011,253.136444 
	C1219.466797,241.956848 1213.786621,220.444336 1223.089478,203.066528 
	C1229.432495,191.217392 1239.619141,186.374008 1253.271118,193.152435 
	C1264.690552,198.822250 1276.136719,204.297607 1288.803467,206.304321 
	C1303.855103,208.688858 1319.019165,210.440384 1333.370728,203.094650 
	C1341.598389,198.883331 1345.876343,190.084610 1341.676392,183.365784 
	C1338.911499,178.942795 1333.584839,175.387680 1328.628052,173.226303 
	C1319.259277,169.141006 1309.273560,166.495773 1299.646973,162.971283 
	C1281.581543,156.357101 1263.279541,150.376099 1247.241333,139.111694 
	C1232.055786,128.446152 1222.978638,114.245270 1220.026001,96.078171 
	C1217.383423,79.819839 1218.344482,63.767994 1225.230957,48.661194 
	C1229.945923,38.317913 1237.263672,29.726398 1246.799683,22.701878 
z"/>
<path fill="#000000" opacity="1.000000" stroke="none" 
	d="
M1173.025146,53.979210 
	C1166.216064,67.867500 1159.873779,81.586494 1152.537109,94.751312 
	C1142.444214,112.862106 1131.657959,130.588806 1121.051270,148.410110 
	C1115.788208,157.253128 1110.203613,165.904556 1104.922241,174.736984 
	C1104.160156,176.011444 1104.041382,177.815613 1104.036865,179.375824 
	C1103.980713,199.040192 1104.129639,218.706238 1103.904663,238.368179 
	C1103.851562,243.015076 1103.109985,247.795837 1101.803833,252.257019 
	C1099.125854,261.403992 1092.670166,264.578369 1084.503296,264.915436 
	C1075.521484,265.286194 1066.449463,265.679840 1057.528931,264.853088 
	C1040.910889,263.312927 1030.450195,256.288208 1030.079712,236.856613 
	C1029.714478,217.699020 1030.040649,198.528778 1029.933716,179.364807 
	C1029.923584,177.554443 1029.381226,175.499069 1028.419678,173.978958 
	C1012.069946,148.132706 995.053162,122.688499 979.381409,96.440376 
	C969.025208,79.095055 960.180725,60.802425 951.406372,42.574364 
	C946.227905,31.816425 950.267029,20.332899 961.444092,13.851027 
	C972.408142,7.492707 983.796570,7.417145 995.891907,8.819603 
	C1013.221497,10.828977 1022.695801,22.221003 1029.908936,36.107658 
	C1042.075073,59.530090 1053.634766,83.267517 1066.241699,108.455070 
	C1068.789062,102.855263 1071.038940,98.292152 1072.970459,93.598106 
	C1082.357056,70.788567 1091.575684,47.909763 1101.026489,25.127075 
	C1105.327515,14.758948 1114.073364,10.473774 1124.594971,9.003019 
	C1135.507080,7.477676 1146.241577,6.991444 1156.982788,10.856435 
	C1166.939087,14.438992 1172.277832,21.585188 1174.928345,31.183317 
	C1177.028320,38.787716 1175.611206,46.263607 1173.025146,53.979210 
z"/>
<path fill="#000000" opacity="1.000000" stroke="none" 
	d="
M344.000000,137.000000 
	C344.000000,173.655441 343.919800,209.811188 344.050964,245.966156 
	C344.088226,256.236420 336.525421,264.891174 325.160858,264.985382 
	C316.332733,265.058563 307.463684,265.538757 298.682861,264.890228 
	C279.126434,263.445801 269.373840,254.983292 269.179413,235.281693 
	C268.654938,182.136688 269.000000,128.983109 269.000000,75.832939 
	C269.000000,74.037689 269.000000,72.242439 269.000000,70.000000 
	C253.054276,70.000000 237.436569,70.326149 221.839478,69.899384 
	C208.775650,69.541939 201.702347,62.997543 199.930313,50.178837 
	C198.504318,39.863373 198.029129,29.854311 202.930771,20.160389 
	C207.063049,11.987996 214.088577,8.163721 222.548737,8.127880 
	C280.196503,7.883667 337.847687,7.755895 395.492859,8.212883 
	C406.577972,8.300761 413.351990,13.803058 415.903320,28.159426 
	C417.446777,36.844723 416.916565,45.414936 414.197021,54.074829 
	C411.408569,62.954277 401.331970,69.944756 391.976532,69.982498 
	C376.171875,70.046272 360.366821,70.000000 344.000000,70.000000 
	C344.000000,92.317162 344.000000,114.408585 344.000000,137.000000 
z"/>
<path fill="#000000" opacity="1.000000" stroke="none" 
	d="
M1546.043457,8.000000 
	C1600.520508,8.000000 1654.504761,8.087696 1708.488525,7.941215 
	C1722.819946,7.902328 1730.627930,14.384515 1732.919189,28.149454 
	C1734.368164,36.854546 1733.915894,45.407581 1731.198853,54.069099 
	C1728.412842,62.950695 1718.327393,69.944511 1708.982178,69.982407 
	C1693.176880,70.046494 1677.371094,70.000000 1661.000000,70.000000 
	C1661.000000,71.983170 1661.000000,73.748871 1661.000000,75.514565 
	C1661.000000,132.331177 1660.945312,189.147903 1661.050171,245.964310 
	C1661.069214,256.235535 1653.525757,264.890625 1642.162231,264.985291 
	C1633.333984,265.058838 1624.464844,265.538605 1615.683838,264.890259 
	C1596.125610,263.446106 1586.373779,254.982452 1586.179443,235.282196 
	C1585.654785,182.136353 1586.000000,128.981934 1586.000000,75.830910 
	C1586.000000,74.035820 1586.000000,72.240738 1586.000000,70.000000 
	C1570.052368,70.000000 1554.434204,70.326202 1538.836670,69.899300 
	C1525.783325,69.542038 1518.702637,63.001999 1516.926025,50.175938 
	C1515.612305,40.691242 1515.120728,31.469599 1518.900513,22.335787 
	C1523.041748,12.328614 1530.867676,8.440722 1541.052612,8.008816 
	C1542.549316,7.945343 1544.051147,8.000000 1546.043457,8.000000 
z"/>
<path fill="#000000" opacity="1.000000" stroke="none" 
	d="
M2356.601562,69.999336 
	C2339.985596,69.999924 2323.830811,69.999924 2307.000000,69.999924 
	C2307.000000,71.858406 2307.000000,73.609283 2307.000000,75.360153 
	C2307.000000,132.180771 2306.924072,189.001587 2307.069580,245.821823 
	C2307.095947,256.075806 2299.466064,265.049438 2287.802734,265.006592 
	C2278.806641,264.973541 2269.797852,265.289490 2260.818359,264.904144 
	C2254.188965,264.619629 2247.773682,262.834991 2242.309814,258.768250 
	C2234.501221,252.956146 2232.132324,244.399689 2232.098633,235.417969 
	C2231.898682,182.263947 2232.000000,129.108780 2232.000000,75.954010 
	C2232.000000,74.147667 2232.000000,72.341324 2232.000000,70.000000 
	C2219.651367,70.000000 2207.549561,70.112000 2195.451416,69.951950 
	C2189.554688,69.873932 2183.523438,69.962196 2177.806641,68.764946 
	C2170.360352,67.205582 2165.652832,62.160229 2163.894775,54.484180 
	C2161.231445,42.855690 2160.415771,31.473595 2165.914062,20.268169 
	C2169.971680,11.998267 2177.023193,8.180146 2185.440186,8.140938 
	C2243.092773,7.872379 2300.747803,7.860624 2358.400146,8.133886 
	C2368.291016,8.180768 2375.949707,14.340619 2378.140625,25.305082 
	C2379.764893,33.434418 2380.559570,41.457603 2378.731934,49.488800 
	C2376.112793,60.998135 2368.902100,68.039162 2356.601562,69.999336 
z"/>
<path fill="#000000" opacity="1.000000" stroke="none" 
	d="
M1431.000000,212.000000 
	C1431.000000,150.034714 1430.999878,88.569435 1431.000000,27.104153 
	C1431.000122,13.661678 1437.448730,5.849824 1450.953735,5.182202 
	C1463.977173,4.538383 1477.084595,4.356015 1489.838745,8.835174 
	C1498.725220,11.956007 1502.889038,18.461107 1504.869995,26.751402 
	C1505.921265,31.150854 1505.952881,35.862301 1505.957031,40.433365 
	C1506.019409,108.561501 1506.026489,176.689713 1505.975952,244.817871 
	C1505.966797,257.233154 1498.585083,265.132172 1485.815186,265.015137 
	C1477.156006,264.935791 1468.460693,265.488464 1459.844482,264.875336 
	C1449.263794,264.122498 1439.243774,261.178009 1434.343140,250.479187 
	C1432.383911,246.202011 1431.442871,241.213135 1431.139648,236.477737 
	C1430.629639,228.514832 1431.000000,220.495560 1431.000000,212.000000 
z"/>
<path fill="#000000" opacity="1.000000" stroke="none" 
	d="
M2389.000000,161.000000 
	C2389.000000,116.025124 2389.000000,71.550240 2389.000244,27.075363 
	C2389.000244,13.653099 2395.496582,5.824021 2408.981934,5.177907 
	C2422.007568,4.553817 2435.122314,4.329254 2447.864258,8.846664 
	C2456.706055,11.981324 2460.935059,18.452566 2462.875000,26.778055 
	C2463.902344,31.187260 2463.952637,35.890690 2463.957031,40.461739 
	C2464.019287,108.589867 2464.028320,176.718079 2463.974121,244.846237 
	C2463.964111,257.224396 2456.602051,265.138245 2443.786377,265.015778 
	C2435.127441,264.933044 2426.430664,265.497162 2417.816162,264.873108 
	C2407.242676,264.107147 2397.217773,261.161743 2392.330322,250.453888 
	C2390.376465,246.173737 2389.201416,241.156082 2389.144043,236.456085 
	C2388.838379,211.473892 2389.000000,186.485962 2389.000000,161.000000 
z"/>
<path fill="#000000" opacity="1.000000" stroke="none" 
	d="
M426.000000,167.000000 
	C426.000000,120.026283 425.999878,73.552574 426.000061,27.078857 
	C426.000122,13.654021 432.491119,5.826944 445.978668,5.178394 
	C459.004150,4.552065 472.118286,4.331233 484.861206,8.845746 
	C493.706207,11.979328 497.926880,18.456564 499.874207,26.775381 
	C500.905945,31.182825 500.952759,35.887703 500.956940,40.458755 
	C501.019257,108.586830 501.028015,176.714996 500.974365,244.843094 
	C500.964630,257.225159 493.599396,265.137695 480.789795,265.015717 
	C472.130707,264.933258 463.434082,265.497559 454.819489,264.873016 
	C444.246887,264.106537 434.219727,261.165497 429.331390,250.456894 
	C427.377533,246.176651 426.209534,241.160553 426.144318,236.459183 
	C425.825684,213.476532 426.000000,190.487061 426.000000,167.000000 
z"/>
<path fill="#FFFFFF" opacity="1.000000" stroke="none" 
	d="
M2619.730957,65.014648 
	C2632.760986,68.171951 2642.673828,75.503113 2649.436523,86.221237 
	C2655.267334,95.461906 2659.336670,105.709541 2660.039062,116.963936 
	C2660.507812,124.473747 2662.125000,131.992554 2661.830078,139.452026 
	C2661.267090,153.690948 2659.816895,167.984818 2653.403809,181.031418 
	C2644.493652,199.158020 2630.372070,209.569656 2609.502686,210.085342 
	C2596.048340,210.417801 2583.786621,208.034180 2573.157959,199.078049 
	C2564.405273,191.702591 2558.906250,182.288513 2556.202148,171.564377 
	C2553.917480,162.503860 2553.211914,153.029694 2552.029541,143.710434 
	C2550.413086,130.964417 2552.009521,118.394127 2555.056885,106.040672 
	C2558.597412,91.687279 2565.334229,78.998795 2578.459473,71.378426 
	C2584.671387,67.771797 2592.020996,65.409859 2599.139404,64.289787 
	C2605.659668,63.263844 2612.562500,64.668060 2619.730957,65.014648 
z"/>
<path fill="#FFFFFF" opacity="1.000000" stroke="none" 
	d="
M2099.712891,109.318260 
	C2103.652588,123.612358 2107.345215,137.563568 2111.108887,151.782227 
	C2095.409424,151.782227 2079.969971,151.782227 2063.351318,151.782227 
	C2071.829590,125.716339 2080.201172,99.978973 2088.572754,74.241608 
	C2088.913818,74.272285 2089.255127,74.302963 2089.596436,74.333649 
	C2091.298828,79.990746 2093.068115,85.628860 2094.685547,91.310196 
	C2096.355957,97.176697 2097.878418,103.085228 2099.712891,109.318260 
z"/>
</svg>